<svg xmlns="http://www.w3.org/2000/svg" xmlns:xlink="http://www.w3.org/1999/xlink" width="1920" zoomAndPan="magnify" viewBox="0 0 1440 809.999993" height="1080" preserveAspectRatio="xMidYMid meet" version="1.0"><defs><g/><clipPath id="f34d6618ed"><path d="M 209.382812 279.800781 L 1229.382812 279.800781 L 1229.382812 529.550781 L 209.382812 529.550781 Z M 209.382812 279.800781 " clip-rule="nonzero"/></clipPath></defs><g clip-path="url(#f34d6618ed)"><path fill="#ffffff" d="M 209.382812 279.800781 L 1229.382812 279.800781 L 1229.382812 529.550781 L 209.382812 529.550781 Z M 209.382812 279.800781 " fill-opacity="1" fill-rule="nonzero"/></g><g fill="#1a2a44" fill-opacity="1"><g transform="translate(300.041109, 450.074945)"><g><path d="M 33.46875 -91.65625 L 33.46875 -57.8125 L 89.328125 -57.8125 L 89.328125 -40.125 L 33.46875 -40.125 L 33.46875 0 L 10.609375 0 L 10.609375 -109.34375 L 91.109375 -109.34375 L 91.109375 -91.65625 Z M 33.46875 -91.65625 "/></g></g></g><g fill="#1a2a44" fill-opacity="1"><g transform="translate(424.707647, 450.074945)"><g><path d="M 44.015625 1.21875 C 32.203125 1.21875 23.160156 -1.664062 16.890625 -7.4375 C 10.617188 -13.207031 7.484375 -21.457031 7.484375 -32.1875 L 7.484375 -85.90625 L 25.453125 -85.90625 L 25.453125 -33.59375 C 25.453125 -26.8125 27.0625 -21.660156 30.28125 -18.140625 C 33.507812 -14.617188 38.25 -12.859375 44.5 -12.859375 C 50.914062 -12.859375 55.847656 -14.695312 59.296875 -18.375 C 62.742188 -22.0625 64.46875 -27.335938 64.46875 -34.203125 L 64.46875 -85.90625 L 82.421875 -85.90625 L 82.421875 -33.109375 C 82.421875 -22.210938 79.0625 -13.765625 72.34375 -7.765625 C 65.632812 -1.773438 56.191406 1.21875 44.015625 1.21875 Z M 44.015625 1.21875 "/></g></g></g><g fill="#1a2a44" fill-opacity="1"><g transform="translate(521.529363, 450.074945)"><g><path d="M 31.90625 1.21875 C 23.007812 1.21875 16.175781 -0.707031 11.40625 -4.5625 C 6.644531 -8.425781 3.472656 -14.671875 1.890625 -23.296875 L 19.71875 -25.90625 C 20.445312 -21.476562 21.804688 -18.195312 23.796875 -16.0625 C 25.785156 -13.925781 28.523438 -12.859375 32.015625 -12.859375 C 35.585938 -12.859375 38.296875 -14.054688 40.140625 -16.453125 C 41.992188 -18.859375 42.921875 -22.296875 42.921875 -26.765625 L 42.921875 -71.828125 L 25.8125 -71.828125 L 25.8125 -85.90625 L 60.8125 -85.90625 L 60.8125 -27.1875 C 60.8125 -18.25 58.273438 -11.28125 53.203125 -6.28125 C 48.128906 -1.28125 41.03125 1.21875 31.90625 1.21875 Z M 31.90625 1.21875 "/></g></g></g><g fill="#1a2a44" fill-opacity="1"><g transform="translate(597.65643, 450.074945)"><g><path d="M 8.34375 0 L 8.34375 -85.90625 L 26.296875 -85.90625 L 26.296875 0 Z M 8.34375 0 "/></g></g></g><g fill="#1a2a44" fill-opacity="1"><g transform="translate(639.089541, 450.074945)"><g><path d="M 67.265625 0 L 47.359375 -32.625 L 26.296875 -32.625 L 26.296875 0 L 8.34375 0 L 8.34375 -85.90625 L 51.203125 -85.90625 C 61.421875 -85.90625 69.3125 -83.703125 74.875 -79.296875 C 80.4375 -74.890625 83.21875 -68.554688 83.21875 -60.296875 C 83.21875 -54.285156 81.507812 -49.09375 78.09375 -44.71875 C 74.6875 -40.351562 70.082031 -37.476562 64.28125 -36.09375 L 87.484375 0 Z M 65.140625 -59.578125 C 65.140625 -67.828125 59.863281 -71.953125 49.3125 -71.953125 L 26.296875 -71.953125 L 26.296875 -46.578125 L 49.796875 -46.578125 C 54.828125 -46.578125 58.640625 -47.710938 61.234375 -49.984375 C 63.835938 -52.265625 65.140625 -55.460938 65.140625 -59.578125 Z M 65.140625 -59.578125 "/></g></g></g><g fill="#1a2a44" fill-opacity="1"><g transform="translate(735.911257, 450.074945)"><g><path d="M 8.34375 0 L 8.34375 -85.90625 L 26.296875 -85.90625 L 26.296875 0 Z M 8.34375 0 "/></g></g></g><g fill="#1a2a44" fill-opacity="1"><g transform="translate(777.344345, 450.074945)"><g><path d="M 78.28125 -24.75 C 78.28125 -16.34375 75.164062 -9.910156 68.9375 -5.453125 C 62.707031 -1.003906 53.566406 1.21875 41.515625 1.21875 C 30.515625 1.21875 21.890625 -0.726562 15.640625 -4.625 C 9.390625 -8.53125 5.375 -14.445312 3.59375 -22.375 L 20.9375 -25.25 C 22.113281 -20.695312 24.40625 -17.390625 27.8125 -15.328125 C 31.226562 -13.273438 35.957031 -12.25 42 -12.25 C 54.539062 -12.25 60.8125 -16.070312 60.8125 -23.71875 C 60.8125 -26.15625 60.085938 -28.164062 58.640625 -29.75 C 57.203125 -31.34375 55.175781 -32.664062 52.5625 -33.71875 C 49.945312 -34.769531 44.925781 -36.050781 37.5 -37.5625 C 31.082031 -39.0625 26.613281 -40.269531 24.09375 -41.1875 C 21.582031 -42.101562 19.3125 -43.179688 17.28125 -44.421875 C 15.257812 -45.660156 13.535156 -47.148438 12.109375 -48.890625 C 10.691406 -50.640625 9.585938 -52.691406 8.796875 -55.046875 C 8.003906 -57.410156 7.609375 -60.117188 7.609375 -63.171875 C 7.609375 -70.929688 10.519531 -76.875 16.34375 -81 C 22.164062 -85.125 30.640625 -87.1875 41.765625 -87.1875 C 52.390625 -87.1875 60.367188 -85.519531 65.703125 -82.1875 C 71.046875 -78.851562 74.488281 -73.347656 76.03125 -65.671875 L 58.625 -63.296875 C 57.726562 -66.992188 55.910156 -69.773438 53.171875 -71.640625 C 50.429688 -73.515625 46.503906 -74.453125 41.390625 -74.453125 C 30.515625 -74.453125 25.078125 -71.035156 25.078125 -64.203125 C 25.078125 -61.972656 25.65625 -60.144531 26.8125 -58.71875 C 27.96875 -57.289062 29.679688 -56.078125 31.953125 -55.078125 C 34.234375 -54.085938 38.84375 -52.84375 45.78125 -51.34375 C 54.019531 -49.59375 59.910156 -47.972656 63.453125 -46.484375 C 67.003906 -45.003906 69.816406 -43.28125 71.890625 -41.3125 C 73.960938 -39.34375 75.546875 -36.984375 76.640625 -34.234375 C 77.734375 -31.492188 78.28125 -28.332031 78.28125 -24.75 Z M 78.28125 -24.75 "/></g></g></g><g fill="#1a2a44" fill-opacity="1"><g transform="translate(867.288138, 450.074945)"><g><path d="M 8.34375 0 L 8.34375 -85.90625 L 75.796875 -85.90625 L 75.796875 -72.015625 L 26.296875 -72.015625 L 26.296875 -50.421875 L 72.078125 -50.421875 L 72.078125 -36.53125 L 26.296875 -36.53125 L 26.296875 -13.90625 L 78.28125 -13.90625 L 78.28125 0 Z M 8.34375 0 "/></g></g></g></svg>